<svg width="13" height="16" viewBox="0 0 13 16" fill="none" xmlns="http://www.w3.org/2000/svg">
<path d="M0 16C0 14.3834 0.68482 12.8331 1.90381 11.69C3.12279 10.5469 4.77609 9.90476 6.5 9.90476C8.22391 9.90476 9.87721 10.5469 11.0962 11.69C12.3152 12.8331 13 14.3834 13 16H11.375C11.375 14.7876 10.8614 13.6248 9.94715 12.7675C9.03291 11.9102 7.79293 11.4286 6.5 11.4286C5.20707 11.4286 3.96709 11.9102 3.05285 12.7675C2.13861 13.6248 1.625 14.7876 1.625 16H0ZM6.5 9.14286C3.80656 9.14286 1.625 7.09714 1.625 4.57143C1.625 2.04571 3.80656 0 6.5 0C9.19344 0 11.375 2.04571 11.375 4.57143C11.375 7.09714 9.19344 9.14286 6.5 9.14286ZM6.5 7.61905C8.29562 7.61905 9.75 6.25524 9.75 4.57143C9.75 2.88762 8.29562 1.52381 6.5 1.52381C4.70437 1.52381 3.25 2.88762 3.25 4.57143C3.25 6.25524 4.70437 7.61905 6.5 7.61905Z" fill="#122947"/>
</svg>
