<svg width="85" height="13" viewBox="0 0 85 13" fill="none" xmlns="http://www.w3.org/2000/svg">
<path d="M0 0.267489H1.98644L6.83569 9.98628L11.6849 0.267489H13.6714V12.7325H11.7434V3.86968L7.32256 12.7325H6.34882L1.90854 3.86968V12.7325H0V0.267489Z" fill="#122947"/>
<path d="M20.7532 0.267489H22.6618L28.0953 12.7325H26.0699L24.7066 9.62963H18.6889L17.3646 12.7325H15.3197L20.7532 0.267489ZM24.1613 8.11385L21.7075 2.28258L19.2537 8.11385H24.1613Z" fill="#122947"/>
<path d="M30.2393 0.267489H35.7118C37.1659 0.267489 38.2825 0.588477 39.0615 1.23045C39.8405 1.87243 40.23 2.81161 40.23 4.04801C40.23 4.96342 39.9638 5.74211 39.4315 6.38409C38.8992 7.01417 38.1461 7.44216 37.1724 7.66804L40.1715 12.7325H38.1072L35.2054 7.8107H32.2258V12.7325H30.2393V0.267489ZM35.3807 6.27709C36.2506 6.27709 36.9387 6.09282 37.445 5.72428C37.9644 5.34385 38.224 4.78509 38.224 4.04801C38.224 3.2396 37.9709 2.66301 37.4645 2.31824C36.9712 1.97348 36.2766 1.8011 35.3807 1.8011H32.2258V6.27709H35.3807Z" fill="#122947"/>
<path d="M48.8651 13C47.5148 13 46.2944 12.7325 45.2038 12.1975C44.1132 11.6507 43.2563 10.8839 42.6331 9.89712C42.0099 8.91038 41.6983 7.78098 41.6983 6.50892C41.6983 5.23685 42.0099 4.10745 42.6331 3.12071C43.2563 2.13397 44.1132 1.36717 45.2038 0.820302C46.2944 0.273434 47.5148 0 48.8651 0C50.2154 0 51.4358 0.273434 52.5264 0.820302C53.617 1.36717 54.4739 2.13397 55.0971 3.12071C55.7203 4.10745 56.0319 5.23685 56.0319 6.50892C56.0319 7.78098 55.7203 8.91038 55.0971 9.89712C54.4739 10.8839 53.617 11.6507 52.5264 12.1975C51.4358 12.7325 50.2154 13 48.8651 13ZM48.8651 11.3594C49.8259 11.3594 50.6957 11.1632 51.4747 10.7709C52.2667 10.3667 52.8899 9.80201 53.3443 9.07682C53.7987 8.33974 54.0259 7.48377 54.0259 6.50892C54.0259 5.54595 53.7987 4.70188 53.3443 3.97668C52.9029 3.2396 52.2927 2.6749 51.5137 2.28258C50.7347 1.87837 49.8648 1.67627 48.904 1.67627C47.9303 1.67627 47.0474 1.87243 46.2555 2.26475C45.4765 2.65706 44.8533 3.22177 44.3859 3.95885C43.9314 4.69593 43.7042 5.54595 43.7042 6.50892C43.7042 7.48377 43.9314 8.33974 44.3859 9.07682C44.8403 9.80201 45.457 10.3667 46.236 10.7709C47.028 11.1632 47.9043 11.3594 48.8651 11.3594Z" fill="#122947"/>
<path d="M64.8596 13C63.5093 13 62.2889 12.7325 61.1983 12.1975C60.1077 11.6507 59.2508 10.8839 58.6276 9.89712C58.0044 8.91038 57.6928 7.78098 57.6928 6.50892C57.6928 5.23685 58.0044 4.10745 58.6276 3.12071C59.2508 2.13397 60.1077 1.36717 61.1983 0.820302C62.2889 0.273434 63.5093 0 64.8596 0C66.2099 0 67.4303 0.273434 68.5209 0.820302C69.6115 1.36717 70.4684 2.13397 71.0916 3.12071C71.7148 4.10745 72.0264 5.23685 72.0264 6.50892C72.0264 7.78098 71.7148 8.91038 71.0916 9.89712C70.4684 10.8839 69.6115 11.6507 68.5209 12.1975C67.4303 12.7325 66.2099 13 64.8596 13ZM64.8596 11.3594C65.8204 11.3594 66.6902 11.1632 67.4692 10.7709C68.2612 10.3667 68.8844 9.80201 69.3388 9.07682C69.7933 8.33974 70.0205 7.48377 70.0205 6.50892C70.0205 5.54595 69.7933 4.70188 69.3388 3.97668C68.8974 3.2396 68.2872 2.6749 67.5082 2.28258C66.7292 1.87837 65.8593 1.67627 64.8986 1.67627C63.9248 1.67627 63.042 1.87243 62.25 2.26475C61.471 2.65706 60.8478 3.22177 60.3804 3.95885C59.926 4.69593 59.6988 5.54595 59.6988 6.50892C59.6988 7.48377 59.926 8.33974 60.3804 9.07682C60.8348 9.80201 61.4515 10.3667 62.2305 10.7709C63.0225 11.1632 63.8988 11.3594 64.8596 11.3594Z" fill="#122947"/>
<path d="M74.172 0.267489H76.061L82.9941 9.6653V0.267489H85V12.7325H83.0915L76.1584 3.33471V12.7325H74.172V0.267489Z" fill="#122947"/>
</svg>
