<svg width="14" height="16" viewBox="0 0 14 16" fill="none" xmlns="http://www.w3.org/2000/svg">
<path d="M3.11111 5.33333V3.80952C3.11111 2.79918 3.52083 1.83021 4.25014 1.11578C4.97945 0.401359 5.9686 0 7 0C8.0314 0 9.02055 0.401359 9.74986 1.11578C10.4792 1.83021 10.8889 2.79918 10.8889 3.80952V5.33333H13.2222C13.4285 5.33333 13.6263 5.41361 13.7722 5.55649C13.9181 5.69938 14 5.89317 14 6.09524V15.2381C14 15.4402 13.9181 15.634 13.7722 15.7768C13.6263 15.9197 13.4285 16 13.2222 16H0.777778C0.571498 16 0.373667 15.9197 0.227806 15.7768C0.0819442 15.634 0 15.4402 0 15.2381V6.09524C0 5.89317 0.0819442 5.69938 0.227806 5.55649C0.373667 5.41361 0.571498 5.33333 0.777778 5.33333H3.11111ZM3.11111 6.85714H1.55556V14.4762H12.4444V6.85714H10.8889V8.38095H9.33333V6.85714H4.66667V8.38095H3.11111V6.85714ZM4.66667 5.33333H9.33333V3.80952C9.33333 3.20331 9.0875 2.62193 8.64992 2.19328C8.21233 1.76463 7.61884 1.52381 7 1.52381C6.38116 1.52381 5.78767 1.76463 5.35008 2.19328C4.9125 2.62193 4.66667 3.20331 4.66667 3.80952V5.33333Z" fill="#122947"/>
</svg>
