<svg width="85" height="13" fill="none" xmlns="http://www.w3.org/2000/svg"><path d="M0 .267h1.986l4.85 9.72 4.849-9.72h1.986v12.466h-1.928V3.87l-4.42 8.863h-.974L1.909 3.87v8.863H0V.267ZM20.753.267h1.909l5.433 12.466H26.07L24.707 9.63h-6.018l-1.324 3.102H15.32L20.753.268Zm3.408 7.847-2.454-5.831-2.453 5.83h4.907ZM30.24.267h5.472c1.454 0 2.57.321 3.35.963.779.642 1.168 1.582 1.168 2.818 0 .915-.266 1.694-.798 2.336-.533.63-1.286 1.058-2.26 1.284l3 5.064h-2.065l-2.902-4.921h-2.98v4.921H30.24V.268Zm5.14 6.01c.87 0 1.559-.184 2.065-.553.52-.38.779-.939.779-1.676 0-.808-.253-1.385-.76-1.73-.493-.345-1.187-.517-2.083-.517h-3.155v4.476h3.155ZM48.865 13c-1.35 0-2.57-.268-3.661-.803-1.09-.546-1.948-1.313-2.57-2.3-.624-.987-.936-2.116-.936-3.388 0-1.272.312-2.402.935-3.388.623-.987 1.48-1.754 2.57-2.3C46.295.272 47.516 0 48.866 0s2.57.273 3.661.82c1.091.547 1.948 1.314 2.571 2.3.623.987.935 2.117.935 3.389 0 1.272-.312 2.401-.935 3.388-.623.987-1.48 1.754-2.57 2.3-1.091.536-2.312.803-3.662.803Zm0-1.64c.96 0 1.83-.197 2.61-.59a4.654 4.654 0 0 0 1.87-1.693c.454-.737.68-1.593.68-2.568 0-.963-.226-1.807-.68-2.532a4.39 4.39 0 0 0-1.831-1.694c-.78-.405-1.65-.607-2.61-.607-.974 0-1.857.196-2.649.589a4.653 4.653 0 0 0-1.87 1.694c-.454.737-.68 1.587-.68 2.55 0 .975.226 1.83.68 2.568a4.686 4.686 0 0 0 1.851 1.694c.792.392 1.668.588 2.63.588ZM64.86 13c-1.35 0-2.571-.268-3.662-.803-1.09-.546-1.947-1.313-2.57-2.3-.624-.987-.935-2.116-.935-3.388 0-1.272.311-2.402.935-3.388.623-.987 1.48-1.754 2.57-2.3C62.288.272 63.51 0 64.86 0c1.35 0 2.57.273 3.66.82 1.092.547 1.948 1.314 2.572 2.3.623.987.934 2.117.934 3.389 0 1.272-.311 2.401-.934 3.388-.624.987-1.48 1.754-2.571 2.3-1.09.536-2.311.803-3.661.803Zm0-1.64c.96 0 1.83-.197 2.61-.59a4.654 4.654 0 0 0 1.869-1.693c.454-.737.681-1.593.681-2.568 0-.963-.227-1.807-.681-2.532a4.39 4.39 0 0 0-1.83-1.694c-.78-.405-1.65-.607-2.61-.607-.974 0-1.857.196-2.649.589a4.653 4.653 0 0 0-1.87 1.694c-.454.737-.681 1.587-.681 2.55 0 .975.227 1.83.681 2.568a4.686 4.686 0 0 0 1.85 1.694c.793.392 1.669.588 2.63.588ZM74.172.267h1.889l6.933 9.398V.267H85v12.466h-1.909l-6.933-9.398v9.398h-1.986V.267Z" fill="#122947"/></svg>